<svg xmlns="http://www.w3.org/2000/svg" width="17.33" height="14.2" viewBox="0 0 17.33 14.2"><defs><style>.a{fill:#1e0b78;}</style></defs><g transform="translate(0 0)"><g transform="translate(0 0)"><path class="a" d="M6.807,14.2a.707.707,0,0,1-.5-.206L.416,8.114a1.416,1.416,0,0,1,0-2L6.327.207a.71.71,0,1,1,1,1L2.736,5.8a.354.354,0,0,0,.251.6H10.65V7.821H2.987a.354.354,0,0,0-.251.6L7.309,12.99a.709.709,0,0,1-.5,1.21Zm9.812-6.379H13.49V6.4h3.129a.706.706,0,0,1,.71.7A.715.715,0,0,1,16.619,7.821Z" transform="translate(0 0)"/></g></g></svg>